<svg xmlns="http://www.w3.org/2000/svg" viewBox="0 0 845.17 563.25"><defs><style>.a{fill:red;}.b{fill:#fff;}</style></defs><path class="a" d="M678.5,341.65c5.86-20.66,9.71-16.89-12-27.74-18.21-9.1-36.52-5.59-52.62,4.42-25.69,16-42.75,39.14-46.81,69.81-4.7,35.47,8.93,63.43,37.6,84.34,7.66,5.59,7.87,5.64,2.61,13.79-20.81,32.22-51.27,49.41-88.52,54.18-37.61,4.82-72-4.27-101.83-28.39-11.32-9.16-20.19-20.33-25-34.36-1.58-4.59-3.43-9.09-5.22-13.78-9.72,5.62-18.61,11.3-28,16.07-24.72,12.59-50.81,19.7-78.83,18.45C238.29,496.6,198.63,466,188,427.52c-9.28-33.56,4-75.71,30.52-96.55,11.35-8.92,24.22-12.43,38.43-10.06a70.56,70.56,0,0,1,36.49,17.35c13.1,11.89,19.1,26.05,12.57,44.73,6.81,1.24,13.13,2.59,19.51,3.35,1,.13,2.81-2.11,3.53-3.6,4.83-9.92,4.39-20.21.75-30.24-10.9-30-34-46.16-63.74-53.17-41.13-9.7-71.95,14.06-88.89,46.6-6.77,13-10.65,27.47-16.22,42.29-27.89,1.79-54.21-6.42-77.38-24.53-18.23-14.25-30.57-33-40.12-53.81-12.88-28.12-24-85-21.58-113.27,8.87,5.87,17.28,12.14,26.32,17.29C67.63,225,88.25,231.62,111,227.37c15.6-2.91,27.88-12.05,39.78-21.82,6.9-5.68,13.73-11.46,20.91-16.77,23.31-17.26,48.54-16.75,74.58-7.52l17.74,6.3c2.13-51.32,19.17-93.46,68-116.06,30.63-14.19,62.33-16.85,94.57-4-3.47,9.73-7.28,18.77-9.93,28.14-9.15,32.25-8.78,64.13,11.93,91.83,20.06,26.84,46.79,44.41,82,44,33.57-.35,80-34.19,76.55-77.35a64.12,64.12,0,0,0-1.41-9.76c-4.77-20.44-8.83-22.41-29-13.52.85,2,1.65,4.1,2.57,6.13,9.79,21.53,4.26,41.85-14.35,56.49-29.5,23.21-54.6,17.6-82.09-3.33-24.65-18.76-31.39-44.25-27-73.48,6.43-42.62,31.25-79.44,79.23-90.61a166.45,166.45,0,0,1,70.75-1.45c35.67,7,65.17,23.82,86.33,53.86,13.57,19.26,21,40.93,23.46,64.28,1.15,11,.94,10.64,11.73,12.89C763.22,167.36,800,201,815.55,255.37c21.14,73.84.07,136.93-54.32,189.66-45,43.63-112,34.35-149,4.5-27.93-22.54-30.54-66.26-5.62-94.91,13.06-15,28.14-25.43,49.15-21.08C663.45,335.12,670.69,338.79,678.5,341.65Z"/><path class="b" d="M554.05,21.55a164.51,164.51,0,0,1,31.79,3.12c35.67,7,65.17,23.82,86.33,53.86,13.57,19.26,21,40.93,23.46,64.28,1.15,11,1,10.64,11.73,12.89C763.22,167.36,800,201,815.55,255.37c21.14,73.84.07,136.93-54.32,189.66-21.78,21.11-48.7,29.84-74.88,29.84-27.92,0-55-9.93-74.09-25.34-27.93-22.54-30.54-66.26-5.62-94.91,11-12.67,23.5-22.08,39.76-22.08a46,46,0,0,1,9.39,1c7.66,1.58,14.9,5.25,22.71,8.11,5.86-20.66,9.71-16.89-12-27.74a48.21,48.21,0,0,0-21.73-5.26c-10.76,0-21.22,3.67-30.89,9.68-25.69,16-42.75,39.14-46.81,69.81-4.7,35.47,8.93,63.43,37.6,84.34,7.66,5.59,7.87,5.64,2.61,13.79-20.81,32.22-51.27,49.41-88.52,54.18a150.14,150.14,0,0,1-19.12,1.25c-30.19,0-58-9.67-82.71-29.64-11.32-9.16-20.19-20.33-25-34.36-1.58-4.59-3.43-9.09-5.22-13.78-9.72,5.62-18.61,11.3-28,16.07-22.86,11.64-46.89,18.59-72.53,18.59-2.09,0-4.19,0-6.3-.14C238.29,496.6,198.63,466,188,427.52c-9.28-33.57,4-75.71,30.52-96.55,9-7.11,19-10.78,29.92-10.78a51.92,51.92,0,0,1,8.51.72,70.56,70.56,0,0,1,36.49,17.35c13.1,11.89,19.1,26.05,12.57,44.73,6.81,1.24,13.13,2.59,19.51,3.35h.09c1.05,0,2.74-2.16,3.44-3.61,4.83-9.92,4.39-20.21.75-30.24-10.9-30-34-46.16-63.74-53.17a79.19,79.19,0,0,0-18.21-2.19c-32.06,0-56.34,21.24-70.68,48.79-6.77,13-10.65,27.47-16.22,42.29q-3.75.24-7.46.24c-25.13,0-48.83-8.29-69.92-24.77-18.23-14.25-30.57-33-40.12-53.81-12.88-28.12-24-85-21.58-113.27,8.87,5.87,17.28,12.14,26.32,17.29,15.39,8.78,31.53,14.77,48.89,14.77a76.17,76.17,0,0,0,13.94-1.3c15.6-2.91,27.88-12.05,39.78-21.82,6.9-5.68,13.73-11.46,20.91-16.77a67.65,67.65,0,0,1,41.36-13.87c10.86,0,22,2.36,33.22,6.35l17.74,6.3c2.13-51.32,19.17-93.46,68-116.06,17.16-8,34.67-12.29,52.42-12.29a112.77,112.77,0,0,1,42.15,8.33c-3.47,9.73-7.28,18.77-9.93,28.14-9.15,32.25-8.78,64.13,11.93,91.83,19.86,26.56,46.24,44.05,80.9,44.05h1.08c33.57-.35,80-34.19,76.55-77.35a64.12,64.12,0,0,0-1.41-9.76c-3-13-5.79-18.55-12.58-18.55-3.88,0-9.07,1.8-16.38,5,.85,2,1.65,4.1,2.57,6.13,9.79,21.53,4.26,41.85-14.35,56.49C531.65,204,519.26,208.6,507.15,208.6c-14.8,0-29.2-6.88-44.31-18.39-24.65-18.76-31.39-44.25-27-73.48,6.43-42.62,31.25-79.44,79.23-90.61a171.6,171.6,0,0,1,39-4.57m0-21.55A194.07,194.07,0,0,0,510.2,5.13c-27.55,6.42-50.09,20.17-67,40.87q-1.51,1.86-3,3.8l-5.68-2.27a134.62,134.62,0,0,0-50.15-9.87c-20.34,0-41,4.8-61.49,14.28-27.36,12.68-48,31.73-61.39,56.62-7.81,14.53-13.18,30.95-16.23,49.72a113.75,113.75,0,0,0-32.22-4.92,89.37,89.37,0,0,0-54.19,18.09c-6.31,4.67-12.24,9.57-18,14.32l-3.79,3.12c-9.69,8-19.29,15.28-30.05,17.29a54.36,54.36,0,0,1-10,.93c-11.8,0-23.94-3.79-38.21-11.93-5.42-3.09-10.83-6.81-16.56-10.75-2.76-1.89-5.61-3.85-8.54-5.79L3.44,158.54l-3,36.26c-2.66,31.62,8.74,91.91,23.46,124.06,12.25,26.74,27.44,47,46.44,61.81C95.21,400.14,123.2,410,153.49,410c2.92,0,5.9-.09,8.85-.28l1.27-.08a104.17,104.17,0,0,0,3.61,23.61c6.38,23.09,21.27,44.59,41.94,60.54,20.47,15.79,45.25,25.09,69.77,26.18,2.4.1,4.84.16,7.25.16,27.71,0,54.64-6.85,82.31-20.94,2.51-1.28,5-2.61,7.41-4,6.2,12.57,15.4,23.83,27.45,33.59,28.23,22.85,60.62,34.43,96.28,34.43a173.2,173.2,0,0,0,21.86-1.42c21.89-2.8,41.66-9.43,58.77-19.69A138.21,138.21,0,0,0,625.37,498c2.17-3.35,4.81-7.45,6.17-12.4a145,145,0,0,0,54.81,10.86,131.53,131.53,0,0,0,46.73-8.4,125.61,125.61,0,0,0,43.15-27.52c30.28-29.35,50.85-61.72,61.14-96.23,10.76-36.07,10.39-74.71-1.1-114.83C819,189.16,777.64,149.9,716.48,135.65c-3.44-25.89-12.41-49.26-26.69-69.53C666.48,33,632.9,12,590,3.52a187,187,0,0,0-36-3.52Z"/></svg>